<svg xmlns="http://www.w3.org/2000/svg" width="700" height="540" viewBox="0 0 700 540"><rect width="700" height="540" fill="#ffffff"/><path d="M74.0,368.8 L678.0,368.8" fill="none" stroke="#e0e0e0" stroke-width="1" stroke-opacity="1.0" stroke-linejoin="round"/><path d="M74.0,312.8 L678.0,312.8" fill="none" stroke="#e0e0e0" stroke-width="1" stroke-opacity="1.0" stroke-linejoin="round"/><path d="M74.0,256.8 L678.0,256.8" fill="none" stroke="#e0e0e0" stroke-width="1" stroke-opacity="1.0" stroke-linejoin="round"/><path d="M74.0,200.8 L678.0,200.8" fill="none" stroke="#e0e0e0" stroke-width="1" stroke-opacity="1.0" stroke-linejoin="round"/><path d="M74.0,144.8 L678.0,144.8" fill="none" stroke="#e0e0e0" stroke-width="1" stroke-opacity="1.0" stroke-linejoin="round"/><path d="M74.0,88.8 L678.0,88.8" fill="none" stroke="#e0e0e0" stroke-width="1" stroke-opacity="1.0" stroke-linejoin="round"/><path d="M74.0,312.8 L678.0,312.8" fill="none" stroke="#212121" stroke-width="1.2" stroke-opacity="1.0" stroke-linejoin="round"/><rect x="99.1" y="297.7" width="39.8" height="15.1" fill="#1565c0" fill-opacity="0.9"/><rect x="99.1" y="256.8" width="39.8" height="40.9" fill="#c62828" fill-opacity="0.85"/><circle cx="119.0" cy="309.4" r="4" fill="#ef6c00" stroke="#ef6c00" stroke-width="1.4"/><polygon points="119.0,308.8 123.0,316.8 115.0,316.8" fill="#2e7d32" fill-opacity="1.0" stroke="#2e7d32" stroke-width="1.4"/><path d="M115.0,297.6 L123.0,305.6" fill="none" stroke="#212121" stroke-width="2" stroke-opacity="1.0" stroke-linejoin="round"/><path d="M115.0,305.6 L123.0,297.6" fill="none" stroke="#212121" stroke-width="2" stroke-opacity="1.0" stroke-linejoin="round"/><text x="119.0" y="245.0" font-size="10.5" text-anchor="middle" fill="#c62828" font-weight="bold" font-family="Helvetica,Arial,sans-serif">73 %</text><rect x="163.3" y="251.5" width="39.8" height="61.3" fill="#1565c0" fill-opacity="0.9"/><rect x="163.3" y="117.1" width="39.8" height="134.4" fill="#c62828" fill-opacity="0.85"/><circle cx="183.2" cy="321.5" r="4" fill="#ef6c00" stroke="#ef6c00" stroke-width="1.4"/><polygon points="183.2,310.5 187.2,318.5 179.2,318.5" fill="#2e7d32" fill-opacity="1.0" stroke="#2e7d32" stroke-width="1.4"/><path d="M179.2,322.5 L187.2,330.5" fill="none" stroke="#212121" stroke-width="2" stroke-opacity="1.0" stroke-linejoin="round"/><path d="M179.2,330.5 L187.2,322.5" fill="none" stroke="#212121" stroke-width="2" stroke-opacity="1.0" stroke-linejoin="round"/><text x="183.2" y="105.3" font-size="10.5" text-anchor="middle" fill="#c62828" font-weight="bold" font-family="Helvetica,Arial,sans-serif">69 %</text><rect x="227.6" y="250.4" width="39.8" height="62.4" fill="#1565c0" fill-opacity="0.9"/><rect x="227.6" y="187.4" width="39.8" height="63.0" fill="#c62828" fill-opacity="0.85"/><circle cx="247.5" cy="363.8" r="4" fill="#ef6c00" stroke="#ef6c00" stroke-width="1.4"/><polygon points="247.5,305.4 251.5,313.4 243.5,313.4" fill="#2e7d32" fill-opacity="1.0" stroke="#2e7d32" stroke-width="1.4"/><path d="M243.5,314.1 L251.5,322.1" fill="none" stroke="#212121" stroke-width="2" stroke-opacity="1.0" stroke-linejoin="round"/><path d="M243.5,322.1 L251.5,314.1" fill="none" stroke="#212121" stroke-width="2" stroke-opacity="1.0" stroke-linejoin="round"/><text x="247.5" y="175.6" font-size="10.5" text-anchor="middle" fill="#c62828" font-weight="bold" font-family="Helvetica,Arial,sans-serif">50 %</text><rect x="291.8" y="291.0" width="39.8" height="21.8" fill="#1565c0" fill-opacity="0.9"/><rect x="291.8" y="257.9" width="39.8" height="33.0" fill="#c62828" fill-opacity="0.85"/><circle cx="311.7" cy="322.0" r="4" fill="#ef6c00" stroke="#ef6c00" stroke-width="1.4"/><polygon points="311.7,306.3 315.7,314.3 307.7,314.3" fill="#2e7d32" fill-opacity="1.0" stroke="#2e7d32" stroke-width="1.4"/><path d="M307.7,276.3 L315.7,284.3" fill="none" stroke="#212121" stroke-width="2" stroke-opacity="1.0" stroke-linejoin="round"/><path d="M307.7,284.3 L315.7,276.3" fill="none" stroke="#212121" stroke-width="2" stroke-opacity="1.0" stroke-linejoin="round"/><text x="311.7" y="246.2" font-size="10.5" text-anchor="middle" fill="#c62828" font-weight="bold" font-family="Helvetica,Arial,sans-serif">60 %</text><rect x="356.1" y="185.7" width="39.8" height="127.1" fill="#1565c0" fill-opacity="0.9"/><rect x="356.1" y="64.4" width="39.8" height="121.2" fill="#c62828" fill-opacity="0.85"/><circle cx="376.0" cy="285.4" r="4" fill="#ef6c00" stroke="#ef6c00" stroke-width="1.4"/><polygon points="376.0,328.7 380.0,336.7 372.0,336.7" fill="#2e7d32" fill-opacity="1.0" stroke="#2e7d32" stroke-width="1.4"/><path d="M372.0,292.3 L380.0,300.3" fill="none" stroke="#212121" stroke-width="2" stroke-opacity="1.0" stroke-linejoin="round"/><path d="M372.0,300.3 L380.0,292.3" fill="none" stroke="#212121" stroke-width="2" stroke-opacity="1.0" stroke-linejoin="round"/><text x="376.0" y="52.7" font-size="10.5" text-anchor="middle" fill="#c62828" font-weight="bold" font-family="Helvetica,Arial,sans-serif">49 %</text><rect x="420.3" y="234.7" width="39.8" height="78.1" fill="#1565c0" fill-opacity="0.9"/><rect x="420.3" y="138.1" width="39.8" height="96.6" fill="#c62828" fill-opacity="0.85"/><circle cx="440.3" cy="355.6" r="4" fill="#ef6c00" stroke="#ef6c00" stroke-width="1.4"/><polygon points="440.3,304.9 444.3,312.9 436.3,312.9" fill="#2e7d32" fill-opacity="1.0" stroke="#2e7d32" stroke-width="1.4"/><path d="M436.3,318.0 L444.3,326.0" fill="none" stroke="#212121" stroke-width="2" stroke-opacity="1.0" stroke-linejoin="round"/><path d="M436.3,326.0 L444.3,318.0" fill="none" stroke="#212121" stroke-width="2" stroke-opacity="1.0" stroke-linejoin="round"/><text x="440.3" y="126.3" font-size="10.5" text-anchor="middle" fill="#c62828" font-weight="bold" font-family="Helvetica,Arial,sans-serif">55 %</text><rect x="484.6" y="256.2" width="39.8" height="56.6" fill="#1565c0" fill-opacity="0.9"/><rect x="484.6" y="182.9" width="39.8" height="73.4" fill="#c62828" fill-opacity="0.85"/><circle cx="504.5" cy="281.7" r="4" fill="#ef6c00" stroke="#ef6c00" stroke-width="1.4"/><polygon points="504.5,306.3 508.5,314.3 500.5,314.3" fill="#2e7d32" fill-opacity="1.0" stroke="#2e7d32" stroke-width="1.4"/><path d="M500.5,276.3 L508.5,284.3" fill="none" stroke="#212121" stroke-width="2" stroke-opacity="1.0" stroke-linejoin="round"/><path d="M500.5,284.3 L508.5,276.3" fill="none" stroke="#212121" stroke-width="2" stroke-opacity="1.0" stroke-linejoin="round"/><text x="504.5" y="171.1" font-size="10.5" text-anchor="middle" fill="#c62828" font-weight="bold" font-family="Helvetica,Arial,sans-serif">56 %</text><rect x="548.8" y="228.8" width="39.8" height="84.0" fill="#1565c0" fill-opacity="0.9"/><rect x="548.8" y="105.0" width="39.8" height="123.8" fill="#c62828" fill-opacity="0.85"/><circle cx="568.8" cy="285.4" r="4" fill="#ef6c00" stroke="#ef6c00" stroke-width="1.4"/><polygon points="568.8,322.8 572.8,330.8 564.8,330.8" fill="#2e7d32" fill-opacity="1.0" stroke="#2e7d32" stroke-width="1.4"/><path d="M564.8,292.3 L572.8,300.3" fill="none" stroke="#212121" stroke-width="2" stroke-opacity="1.0" stroke-linejoin="round"/><path d="M564.8,300.3 L572.8,292.3" fill="none" stroke="#212121" stroke-width="2" stroke-opacity="1.0" stroke-linejoin="round"/><text x="568.8" y="93.3" font-size="10.5" text-anchor="middle" fill="#c62828" font-weight="bold" font-family="Helvetica,Arial,sans-serif">60 %</text><rect x="613.1" y="240.6" width="39.8" height="72.2" fill="#1565c0" fill-opacity="0.9"/><rect x="613.1" y="67.0" width="39.8" height="173.6" fill="#c62828" fill-opacity="0.85"/><circle cx="633.0" cy="364.9" r="4" fill="#ef6c00" stroke="#ef6c00" stroke-width="1.4"/><polygon points="633.0,304.9 637.0,312.9 629.0,312.9" fill="#2e7d32" fill-opacity="1.0" stroke="#2e7d32" stroke-width="1.4"/><path d="M629.0,295.1 L637.0,303.1" fill="none" stroke="#212121" stroke-width="2" stroke-opacity="1.0" stroke-linejoin="round"/><path d="M629.0,303.1 L637.0,295.1" fill="none" stroke="#212121" stroke-width="2" stroke-opacity="1.0" stroke-linejoin="round"/><text x="633.0" y="55.2" font-size="10.5" text-anchor="middle" fill="#c62828" font-weight="bold" font-family="Helvetica,Arial,sans-serif">71 %</text><path d="M74.0,44.0 L74.0,380.0 L678.0,380.0" fill="none" stroke="#212121" stroke-width="1.3" stroke-opacity="1.0" stroke-linejoin="round"/><path d="M119.0,380.0 L119.0,385.0" fill="none" stroke="#212121" stroke-width="1.2" stroke-opacity="1.0" stroke-linejoin="round"/><text x="119.0" y="399.0" font-size="12" text-anchor="middle" fill="#212121" font-weight="normal" font-family="Helvetica,Arial,sans-serif">eps=1</text><text x="119.0" y="412.0" font-size="12" text-anchor="middle" fill="#212121" font-weight="normal" font-family="Helvetica,Arial,sans-serif">N=6</text><path d="M183.2,380.0 L183.2,385.0" fill="none" stroke="#212121" stroke-width="1.2" stroke-opacity="1.0" stroke-linejoin="round"/><text x="183.2" y="399.0" font-size="12" text-anchor="middle" fill="#212121" font-weight="normal" font-family="Helvetica,Arial,sans-serif">eps=1</text><text x="183.2" y="412.0" font-size="12" text-anchor="middle" fill="#212121" font-weight="normal" font-family="Helvetica,Arial,sans-serif">N=8</text><path d="M247.5,380.0 L247.5,385.0" fill="none" stroke="#212121" stroke-width="1.2" stroke-opacity="1.0" stroke-linejoin="round"/><text x="247.5" y="399.0" font-size="12" text-anchor="middle" fill="#212121" font-weight="normal" font-family="Helvetica,Arial,sans-serif">eps=1</text><text x="247.5" y="412.0" font-size="12" text-anchor="middle" fill="#212121" font-weight="normal" font-family="Helvetica,Arial,sans-serif">N=10</text><path d="M311.7,380.0 L311.7,385.0" fill="none" stroke="#212121" stroke-width="1.2" stroke-opacity="1.0" stroke-linejoin="round"/><text x="311.7" y="399.0" font-size="12" text-anchor="middle" fill="#212121" font-weight="normal" font-family="Helvetica,Arial,sans-serif">eps=2</text><text x="311.7" y="412.0" font-size="12" text-anchor="middle" fill="#212121" font-weight="normal" font-family="Helvetica,Arial,sans-serif">N=6</text><path d="M376.0,380.0 L376.0,385.0" fill="none" stroke="#212121" stroke-width="1.2" stroke-opacity="1.0" stroke-linejoin="round"/><text x="376.0" y="399.0" font-size="12" text-anchor="middle" fill="#212121" font-weight="normal" font-family="Helvetica,Arial,sans-serif">eps=2</text><text x="376.0" y="412.0" font-size="12" text-anchor="middle" fill="#212121" font-weight="normal" font-family="Helvetica,Arial,sans-serif">N=8</text><path d="M440.3,380.0 L440.3,385.0" fill="none" stroke="#212121" stroke-width="1.2" stroke-opacity="1.0" stroke-linejoin="round"/><text x="440.3" y="399.0" font-size="12" text-anchor="middle" fill="#212121" font-weight="normal" font-family="Helvetica,Arial,sans-serif">eps=2</text><text x="440.3" y="412.0" font-size="12" text-anchor="middle" fill="#212121" font-weight="normal" font-family="Helvetica,Arial,sans-serif">N=10</text><path d="M504.5,380.0 L504.5,385.0" fill="none" stroke="#212121" stroke-width="1.2" stroke-opacity="1.0" stroke-linejoin="round"/><text x="504.5" y="399.0" font-size="12" text-anchor="middle" fill="#212121" font-weight="normal" font-family="Helvetica,Arial,sans-serif">eps=5</text><text x="504.5" y="412.0" font-size="12" text-anchor="middle" fill="#212121" font-weight="normal" font-family="Helvetica,Arial,sans-serif">N=6</text><path d="M568.8,380.0 L568.8,385.0" fill="none" stroke="#212121" stroke-width="1.2" stroke-opacity="1.0" stroke-linejoin="round"/><text x="568.8" y="399.0" font-size="12" text-anchor="middle" fill="#212121" font-weight="normal" font-family="Helvetica,Arial,sans-serif">eps=5</text><text x="568.8" y="412.0" font-size="12" text-anchor="middle" fill="#212121" font-weight="normal" font-family="Helvetica,Arial,sans-serif">N=8</text><path d="M633.0,380.0 L633.0,385.0" fill="none" stroke="#212121" stroke-width="1.2" stroke-opacity="1.0" stroke-linejoin="round"/><text x="633.0" y="399.0" font-size="12" text-anchor="middle" fill="#212121" font-weight="normal" font-family="Helvetica,Arial,sans-serif">eps=5</text><text x="633.0" y="412.0" font-size="12" text-anchor="middle" fill="#212121" font-weight="normal" font-family="Helvetica,Arial,sans-serif">N=10</text><path d="M69.0,368.8 L74.0,368.8" fill="none" stroke="#212121" stroke-width="1.2" stroke-opacity="1.0" stroke-linejoin="round"/><text x="65.0" y="372.8" font-size="12" text-anchor="end" fill="#212121" font-weight="normal" font-family="Helvetica,Arial,sans-serif">-2 %</text><path d="M69.0,312.8 L74.0,312.8" fill="none" stroke="#212121" stroke-width="1.2" stroke-opacity="1.0" stroke-linejoin="round"/><text x="65.0" y="316.8" font-size="12" text-anchor="end" fill="#212121" font-weight="normal" font-family="Helvetica,Arial,sans-serif">0 %</text><path d="M69.0,256.8 L74.0,256.8" fill="none" stroke="#212121" stroke-width="1.2" stroke-opacity="1.0" stroke-linejoin="round"/><text x="65.0" y="260.8" font-size="12" text-anchor="end" fill="#212121" font-weight="normal" font-family="Helvetica,Arial,sans-serif">2 %</text><path d="M69.0,200.8 L74.0,200.8" fill="none" stroke="#212121" stroke-width="1.2" stroke-opacity="1.0" stroke-linejoin="round"/><text x="65.0" y="204.8" font-size="12" text-anchor="end" fill="#212121" font-weight="normal" font-family="Helvetica,Arial,sans-serif">4 %</text><path d="M69.0,144.8 L74.0,144.8" fill="none" stroke="#212121" stroke-width="1.2" stroke-opacity="1.0" stroke-linejoin="round"/><text x="65.0" y="148.8" font-size="12" text-anchor="end" fill="#212121" font-weight="normal" font-family="Helvetica,Arial,sans-serif">6 %</text><path d="M69.0,88.8 L74.0,88.8" fill="none" stroke="#212121" stroke-width="1.2" stroke-opacity="1.0" stroke-linejoin="round"/><text x="65.0" y="92.8" font-size="12" text-anchor="end" fill="#212121" font-weight="normal" font-family="Helvetica,Arial,sans-serif">8 %</text><text x="18.0" y="212.0" font-size="13" text-anchor="middle" fill="#212121" font-weight="normal" font-family="Helvetica,Arial,sans-serif" transform="rotate(-90 18.0 212.0)">device time saved (%)</text><text x="74.0" y="20.0" font-size="15" text-anchor="start" fill="#212121" font-weight="bold" font-family="Helvetica,Arial,sans-serif">Most of the headroom is coordination, and knowledge cannot buy it</text><text x="74.0" y="36.0" font-size="11.5" text-anchor="start" fill="#90a4ae" font-weight="normal" font-family="Helvetica,Arial,sans-serif">Bar label = coordination share (a-e)/a; median 60 %, range 49-73 %</text><rect x="78.0" y="428.0" width="22.0" height="12.0" fill="#1565c0" fill-opacity="1.0"/><text x="107.0" y="438.0" font-size="12" text-anchor="start" fill="#212121" font-weight="normal" font-family="Helvetica,Arial,sans-serif">(e) omniscient, per-session decisions</text><rect x="78.0" y="445.0" width="22.0" height="12.0" fill="#c62828" fill-opacity="1.0"/><text x="107.0" y="455.0" font-size="12" text-anchor="start" fill="#212121" font-weight="normal" font-family="Helvetica,Arial,sans-serif">(a)-(e) coordination - no per-session policy reaches it</text><circle cx="89.0" cy="468.0" r="4.5" fill="#ef6c00" stroke="#ef6c00" stroke-width="0"/><text x="107.0" y="472.0" font-size="12" text-anchor="start" fill="#212121" font-weight="normal" font-family="Helvetica,Arial,sans-serif">(b) return times only</text><polygon points="89.0,480.0 94.0,489.0 84.0,489.0" fill="#2e7d32" fill-opacity="1.0" stroke="#2e7d32" stroke-width="0"/><text x="107.0" y="489.0" font-size="12" text-anchor="start" fill="#212121" font-weight="normal" font-family="Helvetica,Arial,sans-serif">(c) generation lengths only</text><circle cx="89.0" cy="502.0" r="4.5" fill="#212121" stroke="#212121" stroke-width="0"/><text x="107.0" y="506.0" font-size="12" text-anchor="start" fill="#212121" font-weight="normal" font-family="Helvetica,Arial,sans-serif">(d) both</text><text x="434.0" y="442.0" font-size="11" text-anchor="start" fill="#b71c1c" font-weight="normal" font-family="Helvetica,Arial,sans-serif">+4.32 % on exploration seeds -&gt; -0.14 % on held-out seeds:</text><text x="434.0" y="458.0" font-size="11" text-anchor="start" fill="#b71c1c" font-weight="bold" font-family="Helvetica,Arial,sans-serif">phantom gain from 2 free parameters, 20-config search</text></svg>
