<svg xmlns="http://www.w3.org/2000/svg" width="680" height="452" viewBox="0 0 680 452"><rect width="680" height="452" fill="#ffffff"/><path d="M74,305.2L658,305.2" stroke="#e0e0e0" stroke-width="1"/><path d="M74,111.7L658,111.7" stroke="#e0e0e0" stroke-width="1"/><rect x="74" y="44.0" width="584" height="296.0" fill="#b71c1c" fill-opacity="0.0"/><rect x="134.1" y="107.8" width="223.3" height="197.3" fill="#b71c1c" fill-opacity="0.10"/><text x="245.8" y="204.6" font-size="11.5" text-anchor="middle" fill="#b71c1c" font-weight="normal" font-family="Helvetica,Arial,sans-serif">metric은 hit이라 하고</text><text x="245.8" y="227.8" font-size="11.5" text-anchor="middle" fill="#b71c1c" font-weight="bold" font-family="Helvetica,Arial,sans-serif">device는 재계산한다</text><path d="M74.0,111.7 L134.1,111.7 L134.1,305.2 L658.0,305.2" fill="none" stroke="#37474f" stroke-width="3.0" stroke-opacity="1.0" stroke-linejoin="round"/><path d="M74.0,111.7 L357.4,111.7 L357.4,305.2 L658.0,305.2" fill="none" stroke="#90a4ae" stroke-width="2.0" stroke-opacity="1.0" stroke-linejoin="round" stroke-dasharray="6 4"/><path d="M74.0,111.7 L211.4,111.7 L211.4,305.2 L658.0,305.2" fill="none" stroke="#1565c0" stroke-width="1.8" stroke-opacity="1.0" stroke-linejoin="round" stroke-dasharray="3 3"/><text x="211.4" y="96.2" font-size="10.5" text-anchor="middle" fill="#1565c0" font-weight="normal" font-family="Helvetica,Arial,sans-serif">2,000 tok</text><path d="M74.0,111.7 L340.2,111.7 L340.2,305.2 L658.0,305.2" fill="none" stroke="#c62828" stroke-width="1.8" stroke-opacity="1.0" stroke-linejoin="round" stroke-dasharray="3 3"/><text x="340.2" y="96.2" font-size="10.5" text-anchor="middle" fill="#c62828" font-weight="normal" font-family="Helvetica,Arial,sans-serif">1,000 tok</text><path d="M74.0,111.7 L597.9,111.7 L597.9,305.2 L658.0,305.2" fill="none" stroke="#ef6c00" stroke-width="1.8" stroke-opacity="1.0" stroke-linejoin="round" stroke-dasharray="3 3"/><text x="597.9" y="96.2" font-size="10.5" text-anchor="middle" fill="#ef6c00" font-weight="normal" font-family="Helvetica,Arial,sans-serif">500 tok</text><path d="M134.1,340L134.1,44" stroke="#37474f" stroke-width="1.4" stroke-dasharray="2 2"/><text x="134.1" y="69.2" font-size="12" text-anchor="middle" fill="#37474f" font-weight="bold" font-family="Helvetica,Arial,sans-serif">B = 7</text><path d="M74,44L74,340L658,340" fill="none" stroke="#212121" stroke-width="1.3"/><path d="M74.0,340L74.0,345" stroke="#212121" stroke-width="1.2"/><text x="74.0" y="359.0" font-size="12" text-anchor="middle" fill="#212121" font-weight="normal" font-family="Helvetica,Arial,sans-serif">0</text><path d="M134.1,340L134.1,345" stroke="#212121" stroke-width="1.2"/><text x="134.1" y="359.0" font-size="12" text-anchor="middle" fill="#212121" font-weight="normal" font-family="Helvetica,Arial,sans-serif">7</text><path d="M211.4,340L211.4,345" stroke="#212121" stroke-width="1.2"/><text x="211.4" y="359.0" font-size="12" text-anchor="middle" fill="#212121" font-weight="normal" font-family="Helvetica,Arial,sans-serif">16</text><path d="M357.4,340L357.4,345" stroke="#212121" stroke-width="1.2"/><text x="357.4" y="359.0" font-size="12" text-anchor="middle" fill="#212121" font-weight="normal" font-family="Helvetica,Arial,sans-serif">33</text><path d="M597.9,340L597.9,345" stroke="#212121" stroke-width="1.2"/><text x="597.9" y="359.0" font-size="12" text-anchor="middle" fill="#212121" font-weight="normal" font-family="Helvetica,Arial,sans-serif">61</text><path d="M69,305.2L74,305.2" stroke="#212121" stroke-width="1.2"/><text x="65.0" y="309.2" font-size="12" text-anchor="end" fill="#212121" font-weight="normal" font-family="Helvetica,Arial,sans-serif">소멸</text><path d="M69,111.7L74,111.7" stroke="#212121" stroke-width="1.2"/><text x="65.0" y="115.7" font-size="12" text-anchor="end" fill="#212121" font-weight="normal" font-family="Helvetica,Arial,sans-serif">생존</text><text x="366.0" y="438.0" font-size="13" text-anchor="middle" fill="#212121" font-weight="normal" font-family="Helvetica,Arial,sans-serif">gap 중 도착한 배경 요청 수 B</text><text x="74.0" y="20.0" font-size="15" text-anchor="start" fill="#212121" font-weight="bold" font-family="Helvetica,Arial,sans-serif">① 재사용 절벽 — 문턱은 token 총량이 아니라 요청 개수다</text><text x="74.0" y="36.0" font-size="11.5" text-anchor="start" fill="#90a4ae" font-weight="normal" font-family="Helvetica,Arial,sans-serif">층 2 = outer 8 slot × 8,192 token, FIFO. 2,000 token 요청, 12/12 재현 (TASK14·TASK15)</text><path d="M78,384 L100,384" stroke="#37474f" stroke-width="2.4"/><text x="107.0" y="388.0" font-size="12" text-anchor="start" fill="#212121" font-weight="normal" font-family="Helvetica,Arial,sans-serif">실측 · 층 2 실제 재사용 (FIFO 8 slot)</text><path d="M78,401 L100,401" stroke="#90a4ae" stroke-width="2.4"/><text x="107.0" y="405.0" font-size="12" text-anchor="start" fill="#212121" font-weight="normal" font-family="Helvetica,Arial,sans-serif">`prefix_cache_hits_total` (층 1, LRU 512)</text><path d="M78,418 L100,418" stroke="#1565c0" stroke-width="2.4"/><text x="107.0" y="422.0" font-size="12" text-anchor="start" fill="#212121" font-weight="normal" font-family="Helvetica,Arial,sans-serif">절제(모형): LRU·block 단위 회수 (요청 크기별)</text></svg>
