<svg xmlns="http://www.w3.org/2000/svg" width="700" height="430" viewBox="0 0 700 430"><rect width="700" height="430" fill="#ffffff"/><path d="M74.0,317.7 L678.0,317.7" fill="none" stroke="#e0e0e0" stroke-width="1" stroke-opacity="1.0" stroke-linejoin="round"/><path d="M74.0,237.2 L678.0,237.2" fill="none" stroke="#e0e0e0" stroke-width="1" stroke-opacity="1.0" stroke-linejoin="round"/><path d="M74.0,156.7 L678.0,156.7" fill="none" stroke="#e0e0e0" stroke-width="1" stroke-opacity="1.0" stroke-linejoin="round"/><path d="M74.0,76.2 L678.0,76.2" fill="none" stroke="#e0e0e0" stroke-width="1" stroke-opacity="1.0" stroke-linejoin="round"/><path d="M74.0,76.2 L678.0,76.2" fill="none" stroke="#212121" stroke-width="1.4" stroke-opacity="1.0" stroke-linejoin="round" stroke-dasharray="4 3"/><rect x="289.7" y="44.0" width="345.1" height="322.0" fill="#2e7d32" fill-opacity="0.08"/><text x="462.3" y="63.3" font-size="11" text-anchor="middle" fill="#2e7d32" font-weight="normal" font-family="Helvetica,Arial,sans-serif">통제된 구간 — 눈금은 (1,4,6,8,10,B), 최상위만 B</text><path d="M117.1,76.2 L289.7,130.0 L462.3,130.0 L634.9,130.0" fill="none" stroke="#37474f" stroke-width="1.6" stroke-opacity="0.6" stroke-linejoin="round" stroke-dasharray="5 3"/><path d="M117.1,76.2 L289.7,131.0 L462.3,130.9 L634.9,130.4" fill="none" stroke="#37474f" stroke-width="2.6" stroke-opacity="1.0" stroke-linejoin="round"/><circle cx="117.1" cy="76.2" r="5" fill="#37474f" stroke="#37474f" stroke-width="1.4"/><circle cx="289.7" cy="131.0" r="5" fill="#37474f" stroke="#37474f" stroke-width="1.4"/><circle cx="462.3" cy="130.9" r="5" fill="#37474f" stroke="#37474f" stroke-width="1.4"/><circle cx="634.9" cy="130.4" r="5" fill="#37474f" stroke="#37474f" stroke-width="1.4"/><text x="665.1" y="136.9" font-size="12" text-anchor="end" fill="#37474f" font-weight="normal" font-family="Helvetica,Arial,sans-serif">N=6</text><path d="M117.1,76.2 L289.7,208.7 L462.3,208.7 L634.9,208.7" fill="none" stroke="#1565c0" stroke-width="1.6" stroke-opacity="0.6" stroke-linejoin="round" stroke-dasharray="5 3"/><path d="M117.1,76.2 L289.7,212.8 L462.3,212.9 L634.9,211.2" fill="none" stroke="#1565c0" stroke-width="2.6" stroke-opacity="1.0" stroke-linejoin="round"/><rect x="112.1" y="71.2" width="10.0" height="10.0" fill="#1565c0" fill-opacity="1.0" stroke="#1565c0" stroke-width="1.4"/><rect x="284.7" y="207.8" width="10.0" height="10.0" fill="#1565c0" fill-opacity="1.0" stroke="#1565c0" stroke-width="1.4"/><rect x="457.3" y="207.9" width="10.0" height="10.0" fill="#1565c0" fill-opacity="1.0" stroke="#1565c0" stroke-width="1.4"/><rect x="629.9" y="206.2" width="10.0" height="10.0" fill="#1565c0" fill-opacity="1.0" stroke="#1565c0" stroke-width="1.4"/><text x="665.1" y="217.6" font-size="12" text-anchor="end" fill="#1565c0" font-weight="normal" font-family="Helvetica,Arial,sans-serif">N=8</text><path d="M117.1,76.2 L289.7,331.9 L462.3,337.2 L634.9,337.2" fill="none" stroke="#c62828" stroke-width="1.6" stroke-opacity="0.6" stroke-linejoin="round" stroke-dasharray="5 3"/><path d="M117.1,76.2 L289.7,301.4 L462.3,320.9 L634.9,320.5" fill="none" stroke="#c62828" stroke-width="2.6" stroke-opacity="1.0" stroke-linejoin="round"/><polygon points="117.1,71.2 122.1,81.2 112.1,81.2" fill="#c62828" fill-opacity="1.0" stroke="#c62828" stroke-width="1.4"/><polygon points="289.7,296.4 294.7,306.4 284.7,306.4" fill="#c62828" fill-opacity="1.0" stroke="#c62828" stroke-width="1.4"/><polygon points="462.3,315.9 467.3,325.9 457.3,325.9" fill="#c62828" fill-opacity="1.0" stroke="#c62828" stroke-width="1.4"/><polygon points="634.9,315.5 639.9,325.5 629.9,325.5" fill="#c62828" fill-opacity="1.0" stroke="#c62828" stroke-width="1.4"/><text x="665.1" y="327.0" font-size="12" text-anchor="end" fill="#c62828" font-weight="normal" font-family="Helvetica,Arial,sans-serif">N=10</text><text x="125.8" y="325.8" font-size="11" text-anchor="start" fill="#90a4ae" font-weight="normal" font-family="Helvetica,Arial,sans-serif">B8→B16: 계속 이득</text><text x="462.3" y="209.8" font-size="11.5" text-anchor="middle" fill="#2e7d32" font-weight="bold" font-family="Helvetica,Arial,sans-serif">B16 이후 평평</text><path d="M74.0,44.0 L74.0,366.0 L678.0,366.0" fill="none" stroke="#212121" stroke-width="1.3" stroke-opacity="1.0" stroke-linejoin="round"/><path d="M117.1,366.0 L117.1,371.0" fill="none" stroke="#212121" stroke-width="1.2" stroke-opacity="1.0" stroke-linejoin="round"/><text x="117.1" y="385.0" font-size="12" text-anchor="middle" fill="#212121" font-weight="normal" font-family="Helvetica,Arial,sans-serif">8</text><path d="M289.7,366.0 L289.7,371.0" fill="none" stroke="#212121" stroke-width="1.2" stroke-opacity="1.0" stroke-linejoin="round"/><text x="289.7" y="385.0" font-size="12" text-anchor="middle" fill="#212121" font-weight="normal" font-family="Helvetica,Arial,sans-serif">16</text><path d="M462.3,366.0 L462.3,371.0" fill="none" stroke="#212121" stroke-width="1.2" stroke-opacity="1.0" stroke-linejoin="round"/><text x="462.3" y="385.0" font-size="12" text-anchor="middle" fill="#212121" font-weight="normal" font-family="Helvetica,Arial,sans-serif">24</text><path d="M634.9,366.0 L634.9,371.0" fill="none" stroke="#212121" stroke-width="1.2" stroke-opacity="1.0" stroke-linejoin="round"/><text x="634.9" y="385.0" font-size="12" text-anchor="middle" fill="#212121" font-weight="normal" font-family="Helvetica,Arial,sans-serif">32</text><path d="M69.0,317.7 L74.0,317.7" fill="none" stroke="#212121" stroke-width="1.2" stroke-opacity="1.0" stroke-linejoin="round"/><text x="65.0" y="321.7" font-size="12" text-anchor="end" fill="#212121" font-weight="normal" font-family="Helvetica,Arial,sans-serif">0.85</text><path d="M69.0,237.2 L74.0,237.2" fill="none" stroke="#212121" stroke-width="1.2" stroke-opacity="1.0" stroke-linejoin="round"/><text x="65.0" y="241.2" font-size="12" text-anchor="end" fill="#212121" font-weight="normal" font-family="Helvetica,Arial,sans-serif">0.90</text><path d="M69.0,156.7 L74.0,156.7" fill="none" stroke="#212121" stroke-width="1.2" stroke-opacity="1.0" stroke-linejoin="round"/><text x="65.0" y="160.7" font-size="12" text-anchor="end" fill="#212121" font-weight="normal" font-family="Helvetica,Arial,sans-serif">0.95</text><path d="M69.0,76.2 L74.0,76.2" fill="none" stroke="#212121" stroke-width="1.2" stroke-opacity="1.0" stroke-linejoin="round"/><text x="65.0" y="80.2" font-size="12" text-anchor="end" fill="#212121" font-weight="normal" font-family="Helvetica,Arial,sans-serif">1.00</text><text x="376.0" y="416.0" font-size="13" text-anchor="middle" fill="#212121" font-weight="normal" font-family="Helvetica,Arial,sans-serif">batch_size B  (= outer KV slot 수 = max_num_seqs)</text><text x="18.0" y="205.0" font-size="13" text-anchor="middle" fill="#212121" font-weight="normal" font-family="Helvetica,Arial,sans-serif" transform="rotate(-90 18.0 205.0)">device time ratio (B8 대비) — 작을수록 개선</text><text x="74.0" y="20.0" font-size="15" text-anchor="start" fill="#212121" font-weight="bold" font-family="Helvetica,Arial,sans-serif">⑨ batch_size의 이득은 B=16에서 포화한다</text><text x="74.0" y="36.0" font-size="11.5" text-anchor="start" fill="#90a4ae" font-weight="normal" font-family="Helvetica,Arial,sans-serif">실선 = 실측 채널 A′, 점선 = 선등록 sim. 최상위 눈금 16·24·32는 N ≤ 10에서 한 번도 선택되지 않는다 (TASK40)</text><circle cx="335.0" cy="274.0" r="4.5" fill="#37474f" stroke="#37474f" stroke-width="0"/><text x="353.0" y="278.0" font-size="12" text-anchor="start" fill="#212121" font-weight="normal" font-family="Helvetica,Arial,sans-serif">N=6</text><rect x="330.5" y="286.5" width="9.0" height="9.0" fill="#1565c0" fill-opacity="1.0"/><text x="353.0" y="295.0" font-size="12" text-anchor="start" fill="#212121" font-weight="normal" font-family="Helvetica,Arial,sans-serif">N=8</text><polygon points="335.0,303.0 340.0,312.0 330.0,312.0" fill="#c62828" fill-opacity="1.0" stroke="#c62828" stroke-width="0"/><text x="353.0" y="312.0" font-size="12" text-anchor="start" fill="#212121" font-weight="normal" font-family="Helvetica,Arial,sans-serif">N=10</text><path d="M324.0,325.0 L346.0,325.0" fill="none" stroke="#90a4ae" stroke-width="2.4" stroke-opacity="1.0" stroke-linejoin="round"/><text x="353.0" y="329.0" font-size="12" text-anchor="start" fill="#212121" font-weight="normal" font-family="Helvetica,Arial,sans-serif">점선 = 측정 전 commit된 sim 예측</text></svg>
